# xmcd CD database file
#
# Track frame offsets:
#	150
#	27329
#	56435
#	75413
#	99934
#	128939
#	146396
#	167295
#	198176
#	227718
#	257748
#	289254
#	318535
#
# Disc length: 4582 seconds
#
# Revision: 0
# Processed by: cddbd v1.5.2PL0 Copyright (c) Steve Scherf et al.
# Submitted via: CDex 1.51
#
DISCID=a611e40d
DTITLE=Hampton Haves - Seven Classic Albums
DYEAR=1957
DGENRE=Jazz
TTITLE0=Lyriste
TTITLE1=No Crooks
TTITLE2=Yesterdays
TTITLE3=Back Home Blues
TTITLE4=I Can't Get Strarted
TTITLE5=Hamp's New Blues
TTITLE6=Summertime
TTITLE7=Dizzy Moods
TTITLE8=Laura
TTITLE9=Yardbird Suite
TTITLE10=There Will Never Be Another You
TTITLE11=Bow Jest
TTITLE12=Sweet Sue
EXTD=YEAR: 1957
EXTT0=
EXTT1=
EXTT2=
EXTT3=
EXTT4=
EXTT5=
EXTT6=
EXTT7=
EXTT8=
EXTT9=
EXTT10=
EXTT11=
EXTT12=
PLAYORDER=
